<svg width="33" height="33" viewBox="0 0 33 33" fill="none" xmlns="http://www.w3.org/2000/svg">
<path d="M23.9851 1.41357H11.9747C11.7978 1.41357 11.6281 1.48519 11.503 1.6125L6.16502 7.0446C6.03992 7.17192 5.96954 7.34432 5.96954 7.52469V27.8951C5.96954 29.767 7.46628 31.2901 9.30575 31.2901H23.9851C25.8246 31.2901 27.3213 29.767 27.3213 27.8951V4.80864C27.3213 2.93671 25.8246 1.41357 23.9851 1.41357ZM25.9868 27.8951C25.9868 29.0183 25.0889 29.9321 23.9851 29.9321H9.30575C8.20194 29.9321 7.30403 29.0183 7.30403 27.8951V7.80584L12.251 2.7716H23.9851C25.0889 2.7716 25.9868 3.68535 25.9868 4.80864V27.8951ZM11.9747 9.56172H8.63851C8.27003 9.56172 7.97127 9.25802 7.97127 8.88271C7.97127 8.5074 8.27003 8.2037 8.63851 8.2037H11.9747C12.3426 8.2037 12.642 7.89934 12.642 7.52469V4.12962C12.642 3.75431 12.9407 3.45061 13.3092 3.45061C13.6777 3.45061 13.9764 3.75431 13.9764 4.12962V7.52469C13.9764 8.64797 13.0785 9.56172 11.9747 9.56172ZM15.3109 14.3148H9.97299C9.60451 14.3148 9.30575 14.6185 9.30575 14.9938V20.4259C9.30575 20.8012 9.60451 21.1049 9.97299 21.1049H15.3109C15.6794 21.1049 15.9782 20.8012 15.9782 20.4259V14.9938C15.9782 14.6185 15.6794 14.3148 15.3109 14.3148ZM14.6437 19.7469H10.6402V15.6728H14.6437V19.7469ZM23.3178 6.16666H17.9799C17.6111 6.16666 17.3127 6.47036 17.3127 6.84567V12.2778C17.3127 12.6531 17.6111 12.9568 17.9799 12.9568H23.3178C23.6866 12.9568 23.9851 12.6531 23.9851 12.2778V6.84567C23.9851 6.47036 23.6866 6.16666 23.3178 6.16666ZM22.6506 11.5988H18.6471V7.52469H22.6506V11.5988ZM15.9782 25.858C15.9782 26.2333 15.6794 26.537 15.3109 26.537H9.97299C9.60451 26.537 9.30575 26.2333 9.30575 25.858C9.30575 25.4827 9.60451 25.179 9.97299 25.179H15.3109C15.6794 25.179 15.9782 25.4827 15.9782 25.858ZM15.9782 23.142C15.9782 23.5173 15.6794 23.821 15.3109 23.821H9.97299C9.60451 23.821 9.30575 23.5173 9.30575 23.142C9.30575 22.7667 9.60451 22.463 9.97299 22.463H15.3109C15.6794 22.463 15.9782 22.7667 15.9782 23.142ZM23.9851 25.858C23.9851 26.2333 23.6866 26.537 23.3178 26.537H17.9799C17.6111 26.537 17.3127 26.2333 17.3127 25.858C17.3127 25.4827 17.6111 25.179 17.9799 25.179H23.3178C23.6866 25.179 23.9851 25.4827 23.9851 25.858ZM23.9851 23.142C23.9851 23.5173 23.6866 23.821 23.3178 23.821H17.9799C17.6111 23.821 17.3127 23.5173 17.3127 23.142C17.3127 22.7667 17.6111 22.463 17.9799 22.463H23.3178C23.6866 22.463 23.9851 22.7667 23.9851 23.142ZM23.9851 20.4259C23.9851 20.8012 23.6866 21.1049 23.3178 21.1049H17.9799C17.6111 21.1049 17.3127 20.8012 17.3127 20.4259C17.3127 20.0506 17.6111 19.7469 17.9799 19.7469H23.3178C23.6866 19.7469 23.9851 20.0506 23.9851 20.4259ZM15.9782 12.2778C15.9782 12.6531 15.6794 12.9568 15.3109 12.9568H9.97299C9.60451 12.9568 9.30575 12.6531 9.30575 12.2778C9.30575 11.9025 9.60451 11.5988 9.97299 11.5988H15.3109C15.6794 11.5988 15.9782 11.9025 15.9782 12.2778ZM23.9851 17.7099C23.9851 18.0852 23.6866 18.3889 23.3178 18.3889H17.9799C17.6111 18.3889 17.3127 18.0852 17.3127 17.7099C17.3127 17.3346 17.6111 17.0309 17.9799 17.0309H23.3178C23.6866 17.0309 23.9851 17.3346 23.9851 17.7099ZM23.9851 14.9938C23.9851 15.3691 23.6866 15.6728 23.3178 15.6728H17.9799C17.6111 15.6728 17.3127 15.3691 17.3127 14.9938C17.3127 14.6185 17.6111 14.3148 17.9799 14.3148H23.3178C23.6866 14.3148 23.9851 14.6185 23.9851 14.9938Z" fill="white"/>
</svg>
