<svg width="31" height="28" viewBox="0 0 31 28" fill="none" xmlns="http://www.w3.org/2000/svg">
<path d="M15.4047 27.9726C15.0088 27.9736 14.6167 27.8903 14.2508 27.7274C13.8849 27.5646 13.5526 27.3253 13.2728 27.0235L2.96395 15.9157C2.14958 15.0287 1.50718 13.9759 1.07416 12.8187C0.641147 11.6616 0.426175 10.4231 0.441771 9.1755C0.449617 8.03219 0.666723 6.90178 1.08065 5.84902C1.49458 4.79626 2.0972 3.84183 2.854 3.04041C3.61079 2.23899 4.50689 1.60632 5.49096 1.17864C6.47503 0.750957 7.52774 0.536669 8.58879 0.548048C9.66884 0.536326 10.7401 0.758424 11.739 1.20117C12.7378 1.64392 13.644 2.2983 14.4038 3.1255L15.4047 4.20393L16.2254 3.31962C17.6425 1.75219 19.5388 0.791248 21.5631 0.614776C23.5873 0.438303 25.6023 1.05826 27.2349 2.35981C28.1642 3.13094 28.9304 4.10657 29.4824 5.22171C30.0344 6.33685 30.3596 7.56593 30.4363 8.82708C30.513 10.0882 30.3395 11.3525 29.9272 12.5358C29.515 13.719 28.8735 14.794 28.0456 15.6892L17.5365 27.0235C17.2568 27.3253 16.9244 27.5646 16.5585 27.7274C16.1927 27.8903 15.8005 27.9736 15.4047 27.9726ZM8.54876 2.69413C6.95791 2.69238 5.42883 3.3576 4.28508 4.54903C3.70198 5.15354 3.23827 5.87879 2.92181 6.68123C2.60534 7.48367 2.44265 8.34675 2.4435 9.21864C2.43472 10.1777 2.60272 11.1291 2.93774 12.0177C3.27276 12.9063 3.76815 13.7144 4.39518 14.3951L14.7041 25.503C14.7971 25.604 14.9078 25.6843 15.0298 25.739C15.1517 25.7938 15.2826 25.822 15.4147 25.822C15.5468 25.822 15.6776 25.7938 15.7996 25.739C15.9216 25.6843 16.0322 25.604 16.1253 25.503L26.6444 14.1579C27.2618 13.4785 27.7389 12.666 28.0442 11.7739C28.3495 10.8817 28.4762 9.93004 28.4159 8.98138C28.3624 8.023 28.1174 7.08837 27.6977 6.24147C27.2779 5.39456 26.6933 4.65538 25.9838 4.07452C24.7388 3.08548 23.2027 2.61783 21.6614 2.7587C20.1202 2.89957 18.6791 3.63935 17.6066 4.84021L16.1153 6.49021C16.0222 6.59129 15.9115 6.67151 15.7896 6.72627C15.6676 6.78102 15.5368 6.8092 15.4047 6.8092C15.2725 6.8092 15.1417 6.78102 15.0198 6.72627C14.8978 6.67151 14.7871 6.59129 14.6941 6.49021L12.9926 4.65687C11.8207 3.40511 10.2389 2.70013 8.58879 2.69413H8.54876Z" fill="white"/>
</svg>
