<svg width="56" height="55" viewBox="0 0 56 55" fill="none" xmlns="http://www.w3.org/2000/svg">
<g clip-path="url(#clip0_142_78)">
<path fill-rule="evenodd" clip-rule="evenodd" d="M11.0095 0C4.92912 0 0 4.92487 0 11V44C0 50.0751 4.92911 55 11.0095 55H44.038C50.1183 55 55.0475 50.0751 55.0475 44V11C55.0475 4.92487 50.1183 0 44.038 0H11.0095ZM28.0742 51.7C41.755 51.7 52.8456 40.619 52.8456 26.95C52.8456 13.281 41.755 2.2 28.0742 2.2C14.3934 2.2 3.30285 13.281 3.30285 26.95C3.30285 40.619 14.3934 51.7 28.0742 51.7Z" fill="#B9B9B9"/>
<path fill-rule="evenodd" clip-rule="evenodd" d="M36.3306 15.4004C36.3306 19.9568 32.6338 23.6504 28.0735 23.6504C23.5132 23.6504 19.8164 19.9568 19.8164 15.4004C19.8164 10.844 23.5132 7.15039 28.0735 7.15039C32.6338 7.15039 36.3306 10.844 36.3306 15.4004ZM25.3212 15.8881L22.5688 14.3004L25.3212 12.7127V14.0254H29.7249V14.5754H25.3212V15.8881ZM33.5783 17.0504L30.8259 15.4627V16.7754H26.4221V17.3254H30.8259V18.6381L33.5783 17.0504Z" fill="#B9B9B9"/>
<path d="M18.7161 16.7754L16.7895 19.8004L15.1381 23.6504L14.0371 27.5004V37.9505L14.3124 39.3255H16.2391L16.7895 37.4005L28.8999 37.4004" stroke="#B9B9B9" stroke-width="3"/>
<path d="M12.6609 22H11.5599C10.9519 22 10.459 22.4925 10.459 23.1C10.459 23.7075 10.9519 24.2 11.5599 24.2H12.6609C13.2689 24.2 13.7618 23.7075 13.7618 23.1C13.7618 22.4925 13.2689 22 12.6609 22Z" fill="#B9B9B9"/>
<path d="M13.4004 23.1338L14.9512 23.7008" stroke="#B9B9B9" stroke-width="2"/>
<path d="M14.3125 27.7754H29.1753" stroke="#B9B9B9" stroke-width="9"/>
<path d="M21.9238 30.1543L22.0151 37.3037" stroke="#B9B9B9" stroke-width="3"/>
<path d="M19.2676 30.25H23.6714" stroke="#B9B9B9" stroke-width="2"/>
<path d="M19.8164 30.7998H23.1193" stroke="#B9B9B9" stroke-width="2"/>
<path d="M20.3672 31.3496H22.5691" stroke="#B9B9B9" stroke-width="2"/>
<path d="M14.8633 36.0254H21.469" stroke="#B9B9B9" stroke-width="5"/>
<path d="M14.8633 37.9502H16.5147" stroke="#B9B9B9" stroke-width="2"/>
<path d="M14.3125 34.375H15.9639" stroke="#B9B9B9"/>
<path d="M14.3125 34.375H15.9639" stroke="#B9B9B9"/>
<path d="M14.3125 34.375H15.9639" stroke="#B9B9B9"/>
<path d="M13.7617 33.8252H15.4131" stroke="#B9B9B9"/>
<path d="M13.7617 33.8252H15.4131" stroke="#B9B9B9"/>
<path d="M13.7617 33.8252H15.4131" stroke="#B9B9B9"/>
<path d="M37.133 16.7754L39.0597 19.8004L40.7111 23.6504L41.812 27.5004V37.9505L41.5367 39.3255H39.6101L39.0597 37.4005L26.9492 37.4004" stroke="#B9B9B9" stroke-width="3"/>
<path d="M43.1887 22H44.2897C44.8977 22 45.3906 22.4925 45.3906 23.1C45.3906 23.7075 44.8977 24.2 44.2897 24.2H43.1887C42.5807 24.2 42.0878 23.7075 42.0878 23.1C42.0878 22.4925 42.5807 22 43.1887 22Z" fill="#B9B9B9"/>
<path d="M42.4492 23.1338L40.8984 23.7008" stroke="#B9B9B9" stroke-width="2"/>
<path d="M41.5371 27.7754H26.6743" stroke="#B9B9B9" stroke-width="9"/>
<path d="M33.9258 30.1543L33.8345 37.3042" stroke="#B9B9B9" stroke-width="3"/>
<path d="M36.584 30.25H32.1802" stroke="#B9B9B9" stroke-width="2"/>
<path d="M36.0332 30.7998H32.7304" stroke="#B9B9B9" stroke-width="2"/>
<path d="M35.4824 31.3496H33.2805" stroke="#B9B9B9" stroke-width="2"/>
<path d="M40.9863 36.0254H34.3806" stroke="#B9B9B9" stroke-width="5"/>
<path d="M40.9863 37.9502H39.3349" stroke="#B9B9B9" stroke-width="2"/>
<path d="M41.5371 34.375H39.8857" stroke="#B9B9B9"/>
<path d="M41.5371 34.375H39.8857" stroke="#B9B9B9"/>
<path d="M41.5371 34.375H39.8857" stroke="#B9B9B9"/>
<path d="M42.0879 33.8252H40.4365" stroke="#B9B9B9"/>
<path d="M42.0879 33.8252H40.4365" stroke="#B9B9B9"/>
<path d="M42.0879 33.8252H40.4365" stroke="#B9B9B9"/>
</g>
<defs>
<clipPath id="clip0_142_78">
<rect width="55.0475" height="55" fill="white"/>
</clipPath>
</defs>
</svg>
