<svg width="33" height="32" viewBox="0 0 33 32" fill="none" xmlns="http://www.w3.org/2000/svg">
<path d="M7.53568 17.0897H15.7153V25.2622C15.7153 25.8615 16.206 26.3519 16.8059 26.3519C17.4057 26.3519 17.8965 25.8615 17.8965 25.2622V17.0897H26.0761C26.6759 17.0897 27.1667 16.5993 27.1667 16C27.1667 15.4007 26.6759 14.9103 26.0761 14.9103H17.8965V6.7378C17.8965 6.13848 17.4057 5.64813 16.8059 5.64813C16.206 5.64813 15.7153 6.13848 15.7153 6.7378V14.9103H7.53568C6.93584 14.9103 6.44507 15.4007 6.44507 16C6.44507 16.5993 6.93584 17.0897 7.53568 17.0897Z" fill="white"/>
<path d="M16.8059 32C25.6398 32 32.8197 24.8263 32.8197 16C32.8197 7.17363 25.6398 0 16.8059 0C7.97194 0 0.792053 7.17369 0.792053 16C0.792053 24.8264 7.97194 32 16.8059 32ZM16.8059 2.17934C24.4402 2.17934 30.6385 8.37233 30.6385 16C30.6385 23.6277 24.4402 29.8207 16.8059 29.8207C9.17161 29.8207 2.97328 23.6277 2.97328 16C2.97328 8.37233 9.17161 2.17934 16.8059 2.17934Z" fill="white"/>
</svg>
