<svg width="44" height="43" viewBox="0 0 44 43" fill="none" xmlns="http://www.w3.org/2000/svg">
<path d="M43.047 33.1016C42.4278 32.0855 41.573 31.2333 40.5548 30.6169H40.5494L30.8892 24.6883C30.9968 24.5261 31.1043 24.366 31.1978 24.2017C32.2652 22.353 32.9323 20.301 33.1557 18.1785C33.1562 18.1671 33.1562 18.1556 33.1557 18.1441C33.2098 17.6256 33.2371 17.1046 33.2374 16.5833V9.62022C33.2374 9.47198 33.2374 9.32481 33.2266 9.17872C33.2469 9.05599 33.2384 8.93024 33.2019 8.81133C32.9964 6.42337 31.9024 4.19911 30.136 2.57754C28.3695 0.955974 26.0588 0.0548998 23.66 0.0521545H21.0613C18.6627 0.0551226 16.3523 0.956131 14.5859 2.57743C12.8195 4.19873 11.7254 6.42258 11.5194 8.81026C11.4969 8.88851 11.4854 8.96948 11.485 9.05089C11.4853 9.09371 11.4889 9.13645 11.4958 9.17872C11.4893 9.32481 11.485 9.47198 11.485 9.62022V16.5801C11.4853 17.1007 11.5126 17.621 11.5667 18.1388C11.5667 18.1517 11.5667 18.1635 11.5667 18.1764C11.7903 20.2985 12.4573 22.3501 13.5246 24.1984C13.6321 24.3886 13.7568 24.5798 13.889 24.7699L4.36433 30.6169C2.23016 31.9253 0.956116 34.0759 0.956116 36.3693V42.0885C0.956116 42.3164 1.04674 42.535 1.20804 42.6962C1.36934 42.8573 1.58812 42.9479 1.81623 42.9479H43.1018C43.3299 42.9479 43.5487 42.8573 43.71 42.6962C43.8713 42.535 43.9619 42.3164 43.9619 42.0885V36.3683C43.957 35.2169 43.6409 34.0883 43.047 33.1016ZM15.8114 24.4412C15.5135 24.0993 15.2482 23.7303 15.019 23.3391C14.4215 22.305 13.9638 21.1965 13.6579 20.0423C16.0426 21.5011 19.1013 22.3132 22.3666 22.3132C25.6318 22.3132 28.6873 21.5011 31.0752 20.0423C30.7693 21.1965 30.3116 22.305 29.7141 23.3391C29.5007 23.7035 29.2557 24.0486 28.9819 24.3703C27.8466 25.7206 25.778 27.2997 23.3794 27.6854C23.1274 27.7266 22.8732 27.7528 22.6182 27.7638C22.5343 27.7638 22.4515 27.7691 22.3698 27.7691C22.0308 27.7684 21.6925 27.7404 21.3581 27.6854C19.3841 27.3695 17.2607 26.1267 15.8114 24.4412ZM14.8502 4.82276L18.223 8.19151H13.3386C13.5655 6.96396 14.0839 5.80872 14.8502 4.82276ZM31.5214 9.91026V16.5801C31.5214 16.9314 31.5053 17.2815 31.4784 17.6307C29.2905 19.4912 25.9145 20.5944 22.3633 20.5944C18.8121 20.5944 15.4351 19.4912 13.2483 17.6328C13.2214 17.2837 13.2052 16.9335 13.2052 16.5822V9.91026H31.5214ZM29.8775 4.82169C30.6446 5.80772 31.1634 6.96341 31.3903 8.19151H26.5037L29.8775 4.82169ZM22.0763 29.4825C22.2687 29.49 22.458 29.49 22.6504 29.4825V41.2065H22.0763V29.4825ZM24.3706 29.2344C26.3188 28.7488 28.2992 27.579 29.7937 26.0311L38.0486 31.0982C37.6477 31.3308 37.2772 31.6123 36.9455 31.936C35.0963 33.7235 34.1039 36.8474 33.991 41.2291H24.3706V29.2344ZM23.6643 1.7709C25.4978 1.76938 27.2736 2.41114 28.682 3.58419L24.0717 8.19151H20.656L16.0447 3.58526C17.4524 2.41166 19.228 1.76948 21.0613 1.7709H23.6643ZM2.67635 41.2291V36.3693C2.67635 34.758 3.55367 33.2294 5.03522 32.2282C5.39217 32.2862 6.15874 32.5054 6.93715 33.339C7.91661 34.3885 9.07347 36.6024 9.20141 41.2291H2.67635ZM7.96822 31.936C7.63673 31.6126 7.2666 31.3311 6.86619 31.0982L15.0061 26.1041C16.492 27.6145 18.4466 28.7564 20.356 29.2322V41.2291H10.9227C10.8098 36.8474 9.81747 33.7235 7.96822 31.936ZM42.2417 41.2291H35.7166C35.8446 36.6035 37.0014 34.3885 37.9809 33.339C38.7593 32.5054 39.5237 32.2862 39.8807 32.2293C40.5648 32.6838 41.1413 33.2821 41.5697 33.9824C42.005 34.7026 42.2372 35.527 42.2417 36.3683V41.2291ZM18.2348 30.8951H14.1051C13.877 30.8951 13.6583 30.9857 13.497 31.1468C13.3356 31.308 13.245 31.5266 13.245 31.7545V34.2252C13.245 34.4531 13.3356 34.6717 13.497 34.8329C13.6583 34.994 13.877 35.0846 14.1051 35.0846H18.2348C18.4629 35.0846 18.6817 34.994 18.843 34.8329C19.0043 34.6717 19.0949 34.4531 19.0949 34.2252V31.7545C19.0949 31.5266 19.0043 31.308 18.843 31.1468C18.6817 30.9857 18.4629 30.8951 18.2348 30.8951ZM17.3747 33.3658H14.9653V32.6139H17.3747V33.3658ZM18.2348 36.6798H14.1051C13.877 36.6798 13.6583 36.7703 13.497 36.9315C13.3356 37.0927 13.245 37.3112 13.245 37.5392V40.0099C13.245 40.2378 13.3356 40.4564 13.497 40.6175C13.6583 40.7787 13.877 40.8692 14.1051 40.8692H18.2348C18.4629 40.8692 18.6817 40.7787 18.843 40.6175C19.0043 40.4564 19.0949 40.2378 19.0949 40.0099V37.5392C19.0953 37.426 19.0734 37.3139 19.0304 37.2093C18.9873 37.1047 18.924 37.0096 18.8441 36.9294C18.7642 36.8493 18.6692 36.7857 18.5647 36.7423C18.4601 36.6989 18.348 36.6766 18.2348 36.6766V36.6798ZM17.3747 39.1505H14.9653V38.3985H17.3747V39.1505ZM29.5765 30.9005C28.7962 30.9003 28.0334 31.1313 27.3845 31.5643C26.7357 31.9973 26.2299 32.6128 25.9312 33.333C25.6325 34.0533 25.5543 34.8458 25.7065 35.6104C25.8586 36.3751 26.2343 37.0775 26.7861 37.6287C27.3378 38.18 28.0408 38.5554 28.8061 38.7074C29.5714 38.8595 30.3646 38.7813 31.0855 38.4829C31.8063 38.1844 32.4224 37.6791 32.8558 37.0308C33.2891 36.3825 33.5203 35.6203 33.5201 34.8407C33.5201 33.7952 33.1048 32.7924 32.3654 32.0527C31.626 31.3129 30.6229 30.8965 29.5765 30.8951V30.9005ZM29.5765 37.0633C29.1365 37.0635 28.7063 36.9333 28.3403 36.6892C27.9744 36.4452 27.6891 36.0981 27.5206 35.692C27.352 35.2859 27.3078 34.839 27.3936 34.4078C27.4793 33.9766 27.691 33.5805 28.0021 33.2695C28.3132 32.9586 28.7095 32.7468 29.141 32.661C29.5726 32.5751 30.0199 32.6191 30.4264 32.7872C30.833 32.9554 31.1805 33.2403 31.4249 33.6058C31.6694 33.9713 31.7999 34.4011 31.7999 34.8407C31.7979 35.4289 31.5629 35.9923 31.1462 36.4078C30.7296 36.8233 30.1652 37.0571 29.5765 37.0579V37.0633Z" fill="white"/>
</svg>
