<?xml version="1.0" ?><svg data-name="Layer 1" id="Layer_1" viewBox="0 0 512 512" xmlns="http://www.w3.org/2000/svg"><title/><path d="M447.49,364a69,69,0,0,0-23.18-23.13l-.05,0-89.85-55.19c1-1.51,2-3,2.87-4.53a141.9,141.9,0,0,0,18.21-56.07,3.11,3.11,0,0,0,0-.32,140.83,140.83,0,0,0,.76-14.53V145.41c0-1.38,0-2.75-.1-4.11a7.49,7.49,0,0,0-.23-3.42,89.18,89.18,0,0,0-88.75-81.54H243a89.19,89.19,0,0,0-88.75,81.53,8.25,8.25,0,0,0-.32,2.24,7.74,7.74,0,0,0,.1,1.19c-.06,1.36-.1,2.73-.1,4.11V210.2a140.3,140.3,0,0,0,.76,14.51c0,.12,0,.23,0,.35a141.9,141.9,0,0,0,18.21,56.06c1,1.77,2.16,3.55,3.39,5.32L87.7,340.87C67.85,353.05,56,373.07,56,394.42v53.24a8,8,0,0,0,8,8H448a8,8,0,0,0,8-8V394.41A59.5,59.5,0,0,0,447.49,364ZM194.17,283.38a67.69,67.69,0,0,1-7.37-10.26,125.79,125.79,0,0,1-12.66-30.69c22.18,13.58,50.63,21.14,81,21.14s58.79-7.56,81-21.14a125.79,125.79,0,0,1-12.66,30.69,67.23,67.23,0,0,1-6.81,9.6c-10.56,12.57-29.8,27.27-52.11,30.86a59.65,59.65,0,0,1-7.08.73c-.78,0-1.55.05-2.31.05a58.65,58.65,0,0,1-9.41-.78C227.4,310.64,207.65,299.07,194.17,283.38Zm-8.94-182.63,31.37,31.36H171.17A72.65,72.65,0,0,1,185.23,100.75Zm155.06,47.36V210.2c0,3.27-.15,6.53-.4,9.78-20.35,17.32-51.75,27.59-84.78,27.59S190.67,237.3,170.33,220c-.25-3.25-.4-6.51-.4-9.78V148.11ZM325,100.74a72.59,72.59,0,0,1,14.07,31.37H293.62ZM252.44,330.31c1.79.07,3.55.07,5.34,0V439.45h-5.34ZM273.78,328c18.12-4.52,36.54-15.41,50.44-29.82L401,345.35a52.18,52.18,0,0,0-10.26,7.8c-17.2,16.64-26.43,45.72-27.48,86.51H273.78ZM267.21,72.34a72.79,72.79,0,0,1,46.67,16.88L271,132.11H239.23L196.34,89.23A72.74,72.74,0,0,1,243,72.34ZM72,439.66V394.42c0-15,8.16-29.23,21.94-38.55,3.32.54,10.45,2.58,17.69,10.34,9.11,9.77,19.87,30.38,21.06,73.45Zm49.22-86.51a52.44,52.44,0,0,0-10.25-7.8l75.71-46.49c13.82,14.06,32,24.69,49.76,29.12V439.66H148.7C147.65,398.87,138.42,369.79,121.22,353.15ZM440,439.66H379.31c1.19-43.06,11.95-63.68,21.06-73.45,7.24-7.76,14.35-9.8,17.67-10.33a52.45,52.45,0,0,1,15.71,16.32A43.41,43.41,0,0,1,440,394.41Zm-223.29-96.2H178.3a8,8,0,0,0-8,8v23a8,8,0,0,0,8,8h38.41a8,8,0,0,0,8-8v-23A8,8,0,0,0,216.71,343.46Zm-8,23H186.3v-7h22.41Zm8,30.85H178.3a8,8,0,0,0-8,8v23a8,8,0,0,0,8,8h38.41a8,8,0,0,0,8-8v-23A8,8,0,0,0,216.71,397.28Zm-8,23H186.3v-7h22.41Zm113.49-76.8a36.69,36.69,0,1,0,36.68,36.68A36.73,36.73,0,0,0,322.2,343.46Zm0,57.37a20.69,20.69,0,1,1,20.68-20.69A20.71,20.71,0,0,1,322.2,400.83Z"/></svg>